<svg width="104" height="33" viewBox="0 0 104 33" fill="none" xmlns="http://www.w3.org/2000/svg">
<path d="M14.256 14.524V18.88C14.256 20.992 13.692 22.6 12.564 23.704C11.46 24.808 9.852 25.36 7.74 25.36C5.124 25.36 3.288 24.556 2.232 22.948C2.016 22.636 1.836 22.324 1.692 22.012C1.572 21.7 1.476 21.352 1.404 20.968C1.332 20.56 1.272 20.104 1.224 19.6C1.2 19.072 1.188 18.448 1.188 17.728V7.684C1.188 6.172 1.32 5.008 1.584 4.192C1.848 3.352 2.328 2.656 3.024 2.104C4.224 1.12 5.868 0.627998 7.956 0.627998C12.156 0.627998 14.256 2.764 14.256 7.036V10.132H9.072V7.684C9.072 6.676 8.976 5.992 8.784 5.632C8.616 5.272 8.268 5.092 7.74 5.092C7.116 5.092 6.708 5.356 6.516 5.884C6.444 6.076 6.396 6.292 6.372 6.532C6.348 6.748 6.336 7.132 6.336 7.684V17.728C6.336 18.472 6.348 19 6.372 19.312C6.396 19.6 6.468 19.852 6.588 20.068C6.78 20.524 7.152 20.752 7.704 20.752C7.968 20.752 8.196 20.692 8.388 20.572C8.604 20.428 8.76 20.236 8.856 19.996C8.952 19.804 9.012 19.552 9.036 19.24C9.06 18.904 9.072 18.4 9.072 17.728V14.524H14.256ZM16.0507 7.288C16.0507 5.104 16.6027 3.448 17.7067 2.32C18.8107 1.192 20.4307 0.627998 22.5667 0.627998C26.9347 0.627998 29.1187 2.848 29.1187 7.288V19.636C29.1187 21.388 28.5307 22.78 27.3547 23.812C26.1787 24.844 24.5707 25.36 22.5307 25.36C20.5147 25.36 18.9307 24.82 17.7787 23.74C16.6267 22.66 16.0507 21.184 16.0507 19.312V7.288ZM23.9707 7.648C23.9707 6.592 23.8747 5.884 23.6827 5.524C23.4907 5.14 23.1427 4.948 22.6387 4.948C22.0867 4.948 21.7027 5.152 21.4867 5.56C21.2947 5.944 21.1987 6.64 21.1987 7.648V17.656C21.1987 18.28 21.2107 18.736 21.2347 19.024C21.2587 19.288 21.3187 19.528 21.4147 19.744C21.6307 20.344 22.0507 20.644 22.6747 20.644C23.2027 20.644 23.5627 20.392 23.7547 19.888C23.8027 19.768 23.8387 19.66 23.8627 19.564C23.8867 19.444 23.9107 19.312 23.9347 19.168C23.9587 19 23.9707 18.796 23.9707 18.556C23.9707 18.292 23.9707 17.956 23.9707 17.548V7.648ZM44.3714 25H38.9354L36.1994 11.68L36.3074 13.372L36.4874 15.748C36.5114 15.988 36.5234 16.276 36.5234 16.612C36.5474 16.924 36.5594 17.284 36.5594 17.692V25H31.4114V0.987998H36.8834L39.6554 12.832L39.5474 11.212L39.4034 9.304C39.3554 8.824 39.3194 8.38 39.2954 7.972C39.2714 7.564 39.2594 7.216 39.2594 6.928V0.987998H44.3714V25ZM46.9069 0.987998H57.3829V5.632H52.0909V9.412H57.3109V13.984H52.0909V25H46.9069V0.987998ZM58.9219 0.987998H69.5059V5.668H64.1059V9.412H69.2899V13.984H64.1059V20.32H69.7219V25H58.9219V0.987998ZM73.2282 5.812H70.2762V0.987998H81.4722V5.812H78.4122V25H73.2282V5.812ZM84.5401 5.812H81.5881V0.987998H92.7841V5.812H89.7241V25H84.5401V5.812ZM94.088 0.987998H99.272V25H94.088V0.987998Z" fill="#ED4B5E"/>
<rect x="21" y="3.46094" width="4" height="17.7231" fill="#ED4B5E"/>
<path d="M23 18.5C23 19.3205 22.5 25.5 23.5 28C24.5 30.5 25.001 31.0154 23.5003 32" stroke="#ED4B5E"/>
<ellipse cx="23.0934" cy="25.2376" rx="0.697876" ry="1.37428" fill="#ED4B5E"/>
<ellipse cx="0.695207" cy="1.37968" rx="0.695207" ry="1.37968" transform="matrix(0.86935 -0.494197 0.505825 0.862636 22.3955 24.3906)" fill="#ED4B5E"/>
<ellipse cx="0.695207" cy="1.37968" rx="0.695207" ry="1.37968" transform="matrix(-0.86935 -0.494197 -0.505825 0.862636 23.6045 24.3906)" fill="#ED4B5E"/>
</svg>
